<svg width="22" height="18" viewBox="0 0 22 18" fill="none" xmlns="http://www.w3.org/2000/svg">
<path d="M4.34825 14.3411L2.42325 16.2573C2.34124 16.3387 2.27614 16.4354 2.23172 16.5421C2.1873 16.6487 2.16442 16.7631 2.16442 16.8786C2.16442 16.9941 2.1873 17.1085 2.23172 17.2151C2.27614 17.3217 2.34124 17.4185 2.42325 17.4998C2.50459 17.5818 2.60137 17.6469 2.70799 17.6914C2.81462 17.7358 2.92899 17.7587 3.0445 17.7587C3.16001 17.7587 3.27438 17.7358 3.381 17.6914C3.48763 17.6469 3.5844 17.5818 3.66575 17.4998L6.34325 14.8136L9.37075 11.7861L19.4157 1.74983C19.5805 1.58506 19.6731 1.36159 19.6731 1.12858C19.6731 0.895566 19.5805 0.672096 19.4157 0.50733C19.251 0.342564 19.0275 0.25 18.7945 0.25C18.5615 0.25 18.338 0.342564 18.1732 0.50733L15.9332 2.75608C13.2597 1.42157 10.1665 1.19984 7.32992 2.13936C4.49334 3.07887 2.14409 5.10321 0.795747 7.76983C0.601336 8.15203 0.5 8.57477 0.5 9.00358C0.5 9.43239 0.601336 9.85513 0.795747 10.2373C1.62967 11.873 2.84887 13.2814 4.34825 14.3411ZM8.72325 9.00358C8.72324 8.71558 8.78012 8.4304 8.89059 8.16443C9.00107 7.89846 9.16299 7.65693 9.36704 7.45368C9.5711 7.25044 9.81328 7.08949 10.0797 6.98008C10.3461 6.87066 10.6315 6.81493 10.9195 6.81608C11.1918 6.81627 11.4617 6.8667 11.7157 6.96483L8.88075 9.79983C8.78261 9.54582 8.73219 9.27589 8.732 9.00358H8.72325ZM2.3445 8.56608C3.15102 6.98562 4.37872 5.65887 5.89198 4.73239C7.40524 3.8059 9.14515 3.31575 10.9195 3.31608C12.19 3.3193 13.4476 3.572 14.6207 4.05983L13.0107 5.67858C12.3862 5.27954 11.6607 5.06705 10.9195 5.06608C9.87592 5.06839 8.87574 5.48398 8.13782 6.2219C7.39989 6.95982 6.98431 7.96 6.982 9.00358C6.98297 9.74475 7.19546 10.4702 7.5945 11.0948L5.617 13.0636C4.23437 12.1583 3.10991 10.9103 2.35325 9.44108C2.27645 9.30806 2.23602 9.15717 2.23602 9.00358C2.23602 8.84999 2.27645 8.6991 2.35325 8.56608H2.3445ZM19.6082 5.61733C19.5725 5.58812 19.5344 5.56179 19.4945 5.53858L19.3457 5.44233C19.2958 5.41975 19.2427 5.40499 19.1882 5.39858C19.1332 5.38944 19.077 5.38944 19.022 5.39858H18.8645C18.8095 5.38944 18.7533 5.38944 18.6982 5.39858C18.6432 5.41947 18.5905 5.44585 18.5407 5.47733C18.5009 5.49744 18.4629 5.52085 18.427 5.54733L9.0645 14.8748C9.0645 14.8748 9.0645 14.9361 9.00325 14.9623C8.96136 15.0099 8.92605 15.0629 8.89825 15.1198C8.87291 15.1725 8.85523 15.2284 8.84575 15.2861C8.84575 15.2861 8.84575 15.3561 8.84575 15.3911C8.8449 15.4057 8.8449 15.4203 8.84575 15.4348C8.83677 15.4987 8.83677 15.5635 8.84575 15.6273C8.84078 15.6768 8.84078 15.7266 8.84575 15.7761C8.86546 15.8273 8.88886 15.877 8.91575 15.9248L9.012 16.0648C9.012 16.0648 9.012 16.0648 9.012 16.1086C9.012 16.1523 9.07325 16.1523 9.0995 16.1786L9.24825 16.2748C9.3049 16.2975 9.36347 16.3151 9.42325 16.3273C9.42325 16.3273 9.4845 16.3273 9.52825 16.3273H9.6245C10.0538 16.389 10.4861 16.4269 10.9195 16.4411C13.0146 16.4396 15.0686 15.8596 16.855 14.7649C18.6414 13.6702 20.0908 12.1034 21.0432 10.2373C21.2377 9.85513 21.339 9.43239 21.339 9.00358C21.339 8.57477 21.2377 8.15203 21.0432 7.76983C20.6633 7.01365 20.2027 6.30076 19.6695 5.64358L19.6082 5.61733ZM19.4857 9.44108C18.7494 10.8876 17.657 12.1228 16.3115 13.0306C14.9659 13.9383 13.4115 14.4887 11.7945 14.6298L18.8907 7.54233C19.1197 7.8681 19.3245 8.21027 19.5032 8.56608C19.5774 8.70063 19.6148 8.85233 19.6118 9.00592C19.6087 9.15952 19.5652 9.30961 19.4857 9.44108Z" fill="white"/>
<path d="M4.34825 14.3411L2.42325 16.2573C2.34124 16.3387 2.27614 16.4354 2.23172 16.5421C2.1873 16.6487 2.16442 16.7631 2.16442 16.8786C2.16442 16.9941 2.1873 17.1085 2.23172 17.2151C2.27614 17.3217 2.34124 17.4185 2.42325 17.4998C2.50459 17.5818 2.60137 17.6469 2.70799 17.6914C2.81462 17.7358 2.92899 17.7587 3.0445 17.7587C3.16001 17.7587 3.27438 17.7358 3.381 17.6914C3.48763 17.6469 3.5844 17.5818 3.66575 17.4998L6.34325 14.8136L9.37075 11.7861L19.4157 1.74983C19.5805 1.58506 19.6731 1.36159 19.6731 1.12858C19.6731 0.895566 19.5805 0.672096 19.4157 0.50733C19.251 0.342564 19.0275 0.25 18.7945 0.25C18.5615 0.25 18.338 0.342564 18.1732 0.50733L15.9332 2.75608C13.2597 1.42157 10.1665 1.19984 7.32992 2.13936C4.49334 3.07887 2.14409 5.10321 0.795747 7.76983C0.601336 8.15203 0.5 8.57477 0.5 9.00358C0.5 9.43239 0.601336 9.85513 0.795747 10.2373C1.62967 11.873 2.84887 13.2814 4.34825 14.3411ZM8.72325 9.00358C8.72324 8.71558 8.78012 8.4304 8.89059 8.16443C9.00107 7.89846 9.16299 7.65693 9.36704 7.45368C9.5711 7.25044 9.81328 7.08949 10.0797 6.98008C10.3461 6.87066 10.6315 6.81493 10.9195 6.81608C11.1918 6.81627 11.4617 6.8667 11.7157 6.96483L8.88075 9.79983C8.78261 9.54582 8.73219 9.27589 8.732 9.00358H8.72325ZM2.3445 8.56608C3.15102 6.98562 4.37872 5.65887 5.89198 4.73239C7.40524 3.8059 9.14515 3.31575 10.9195 3.31608C12.19 3.3193 13.4476 3.572 14.6207 4.05983L13.0107 5.67858C12.3862 5.27954 11.6607 5.06705 10.9195 5.06608C9.87592 5.06839 8.87574 5.48398 8.13782 6.2219C7.39989 6.95982 6.98431 7.96 6.982 9.00358C6.98297 9.74475 7.19546 10.4702 7.5945 11.0948L5.617 13.0636C4.23437 12.1583 3.10991 10.9103 2.35325 9.44108C2.27645 9.30806 2.23602 9.15717 2.23602 9.00358C2.23602 8.84999 2.27645 8.6991 2.35325 8.56608H2.3445ZM19.6082 5.61733C19.5725 5.58812 19.5344 5.56179 19.4945 5.53858L19.3457 5.44233C19.2958 5.41975 19.2427 5.40499 19.1882 5.39858C19.1332 5.38944 19.077 5.38944 19.022 5.39858H18.8645C18.8095 5.38944 18.7533 5.38944 18.6982 5.39858C18.6432 5.41947 18.5905 5.44585 18.5407 5.47733C18.5009 5.49744 18.4629 5.52085 18.427 5.54733L9.0645 14.8748C9.0645 14.8748 9.0645 14.9361 9.00325 14.9623C8.96136 15.0099 8.92605 15.0629 8.89825 15.1198C8.87291 15.1725 8.85523 15.2284 8.84575 15.2861C8.84575 15.2861 8.84575 15.3561 8.84575 15.3911C8.8449 15.4057 8.8449 15.4203 8.84575 15.4348C8.83677 15.4987 8.83677 15.5635 8.84575 15.6273C8.84078 15.6768 8.84078 15.7266 8.84575 15.7761C8.86546 15.8273 8.88886 15.877 8.91575 15.9248L9.012 16.0648C9.012 16.0648 9.012 16.0648 9.012 16.1086C9.012 16.1523 9.07325 16.1523 9.0995 16.1786L9.24825 16.2748C9.3049 16.2975 9.36347 16.3151 9.42325 16.3273C9.42325 16.3273 9.4845 16.3273 9.52825 16.3273H9.6245C10.0538 16.389 10.4861 16.4269 10.9195 16.4411C13.0146 16.4396 15.0686 15.8596 16.855 14.7649C18.6414 13.6702 20.0908 12.1034 21.0432 10.2373C21.2377 9.85513 21.339 9.43239 21.339 9.00358C21.339 8.57477 21.2377 8.15203 21.0432 7.76983C20.6633 7.01365 20.2027 6.30076 19.6695 5.64358L19.6082 5.61733ZM19.4857 9.44108C18.7494 10.8876 17.657 12.1228 16.3115 13.0306C14.9659 13.9383 13.4115 14.4887 11.7945 14.6298L18.8907 7.54233C19.1197 7.8681 19.3245 8.21027 19.5032 8.56608C19.5774 8.70063 19.6148 8.85233 19.6118 9.00592C19.6087 9.15952 19.5652 9.30961 19.4857 9.44108Z" fill="black" fill-opacity="0.2"/>
</svg>
