<svg width="22" height="17" viewBox="0 0 22 17" fill="none" xmlns="http://www.w3.org/2000/svg">
<path fill-rule="evenodd" clip-rule="evenodd" d="M15.9332 2.75608C13.2597 1.42157 10.1665 1.19984 7.32992 2.13936C4.49334 3.07887 2.14409 5.10321 0.795747 7.76983C0.601336 8.15203 0.5 8.57477 0.5 9.00358C0.5 9.43239 0.601336 9.85513 0.795747 10.2373C1.62967 11.873 2.84887 13.2814 4.34825 14.3411C5.51183 15.0214 8.4551 16.3939 10.9195 16.4411C10.9195 16.4411 11.4975 16.3786 12.3172 16.2348C13.6757 15.9966 15.6981 15.5352 16.855 14.7649C18.7101 13.5298 20.0908 12.1034 21.0432 10.2373C21.2377 9.85513 21.339 9.43239 21.339 9.00358C21.339 8.57477 21.2377 8.15203 21.0432 7.76983C20.6633 7.01365 20.2027 6.30076 19.6695 5.64358C18.2594 4.17668 17.4352 3.58298 15.9332 2.75608ZM2.3445 8.56608C3.15102 6.98562 4.37872 5.65887 5.89198 4.73239C7.40524 3.8059 9.14515 3.31575 10.9195 3.31608C12.19 3.3193 13.4476 3.572 14.6207 4.05983C15.6743 4.56811 18.0033 5.97619 18.8907 7.54233C19.1197 7.8681 19.3245 8.21027 19.5032 8.56608C19.5774 8.70063 19.6148 8.85233 19.6118 9.00592C19.6087 9.15952 19.5652 9.30961 19.4857 9.44108C18.7494 10.8876 17.657 12.1228 16.3115 13.0306C14.9659 13.9383 13.4115 14.4887 11.7945 14.6298C9.23009 15.1337 6.60766 13.7956 5.617 13.0636C4.23437 12.1583 3.10991 10.9103 2.35325 9.44108C2.27645 9.30806 2.23602 9.15718 2.23602 9.00358C2.23602 8.84999 2.27645 8.6991 2.35325 8.56608H2.3445Z" fill="#C2C2C2"/>
<path fill-rule="evenodd" clip-rule="evenodd" d="M15.9332 2.75608C13.2597 1.42157 10.1665 1.19984 7.32992 2.13936C4.49334 3.07887 2.14409 5.10321 0.795747 7.76983C0.601336 8.15203 0.5 8.57477 0.5 9.00358C0.5 9.43239 0.601336 9.85513 0.795747 10.2373C1.62967 11.873 2.84887 13.2814 4.34825 14.3411C5.51183 15.0214 8.4551 16.3939 10.9195 16.4411C10.9195 16.4411 11.4975 16.3786 12.3172 16.2348C13.6757 15.9966 15.6981 15.5352 16.855 14.7649C18.7101 13.5298 20.0908 12.1034 21.0432 10.2373C21.2377 9.85513 21.339 9.43239 21.339 9.00358C21.339 8.57477 21.2377 8.15203 21.0432 7.76983C20.6633 7.01365 20.2027 6.30076 19.6695 5.64358C18.2594 4.17668 17.4352 3.58298 15.9332 2.75608ZM2.3445 8.56608C3.15102 6.98562 4.37872 5.65887 5.89198 4.73239C7.40524 3.8059 9.14515 3.31575 10.9195 3.31608C12.19 3.3193 13.4476 3.572 14.6207 4.05983C15.6743 4.56811 18.0033 5.97619 18.8907 7.54233C19.1197 7.8681 19.3245 8.21027 19.5032 8.56608C19.5774 8.70063 19.6148 8.85233 19.6118 9.00592C19.6087 9.15952 19.5652 9.30961 19.4857 9.44108C18.7494 10.8876 17.657 12.1228 16.3115 13.0306C14.9659 13.9383 13.4115 14.4887 11.7945 14.6298C9.23009 15.1337 6.60766 13.7956 5.617 13.0636C4.23437 12.1583 3.10991 10.9103 2.35325 9.44108C2.27645 9.30806 2.23602 9.15718 2.23602 9.00358C2.23602 8.84999 2.27645 8.6991 2.35325 8.56608H2.3445Z" fill="black" fill-opacity="0.2"/>
<path d="M8.89059 8.16443C8.78012 8.4304 8.72325 8.71558 8.72325 9.00358H8.732C8.73219 9.27589 8.78261 9.54582 8.88075 9.79983L11.7157 6.96483C11.4617 6.8667 11.1918 6.81627 10.9195 6.81608C10.6315 6.81493 10.3461 6.87066 10.0797 6.98008C9.81328 7.08949 9.5711 7.25044 9.36704 7.45368C9.16299 7.65693 9.00107 7.89846 8.89059 8.16443Z" fill="#C2C2C2"/>
<path d="M8.89059 8.16443C8.78012 8.4304 8.72325 8.71558 8.72325 9.00358H8.732C8.73219 9.27589 8.78261 9.54582 8.88075 9.79983L11.7157 6.96483C11.4617 6.8667 11.1918 6.81627 10.9195 6.81608C10.6315 6.81493 10.3461 6.87066 10.0797 6.98008C9.81328 7.08949 9.5711 7.25044 9.36704 7.45368C9.16299 7.65693 9.00107 7.89846 8.89059 8.16443Z" fill="black" fill-opacity="0.2"/>
<path d="M15 9C15 11.2091 13.2091 13 11 13C8.79086 13 7 11.2091 7 9C7 6.79086 8.79086 5 11 5C13.2091 5 15 6.79086 15 9Z" fill="#A6A6A6"/>
</svg>
